<?xml version="1.0" encoding="UTF-8"?><svg id="_Слой_1" xmlns="http://www.w3.org/2000/svg" width="750.88" height="750.88" viewBox="0 0 750.88 750.88"><defs><style>.cls-1{fill:none;stroke-width:7px;}.cls-1,.cls-2{stroke:#39c;stroke-miterlimit:10;}.cls-3,.cls-2{fill:#fff;}.cls-2{stroke-width:5px;}</style></defs><rect class="cls-1" x="112.56" y="113.98" width="523.85" height="524.06"/><rect class="cls-2" x="139.9" y="139.48" width="470.93" height="470.93" transform="translate(-155.19 375.24) rotate(-45)"/><rect class="cls-1" x="113.52" y="113.41" width="523.85" height="524.06" transform="translate(-155.51 375.44) rotate(-45)"/><polygon points="234.12 380.95 170.86 355.45 210.86 254.45 293.86 222.45 308.86 149.45 359.86 111.45 376.86 252.45 490.86 168.45 314.86 305.45 321.86 312.45 463.86 194.45 344.86 298.45 356.86 325.45 281.86 448.45 275.86 356.45 310.86 329.45 298.86 304.45 303.86 326.45 234.12 380.95"/><line x1="373.58" y1="225.2" x2="370.36" y2="214.95"/><polygon class="cls-3" points="228.36 301.95 235.36 277.95 270.36 262.95 274.36 244.95 277.36 268.95 240.36 287.95 228.36 301.95"/><polygon points="275.86 356.45 233.36 385.95 188.89 362.72 232.38 390.7 275.86 356.45"/><polygon points="239.36 515.95 356.86 325.45 423.36 487.95 400.36 487.95 381.36 445.95 310.36 445.95 269.44 515.95 239.36 515.95"/><polygon class="cls-3" points="264.36 508.95 252.86 508.95 353.36 339.95 358.65 339.95 414.36 480.95 405.36 482.95 387.36 436.95 304.36 438.95 264.36 508.95"/><polyline class="cls-3" points="415.36 482.95 405.36 482.95 414.36 480.95"/><polyline points="309.36 430.95 383.33 430.95 354.36 354.95"/><polyline class="cls-3" points="304.36 438.95 385.25 438.95 392.36 438.95 392.36 433.95"/><polyline class="cls-3" points="405.36 482.95 385.25 436.45 392.36 438.95"/><polyline class="cls-3" points="385.25 438.95 403.39 478.38 403.39 459.7 390.86 433.95"/><polygon points="431.44 420.7 431.44 488.97 458.61 488.97 458.61 478.38 442.31 478.38 441.29 420.7 431.44 420.7"/><polyline points="464.04 488.97 474.57 488.97 474.57 420.7 464.04 420.7"/><polyline points="484.42 420.7 484.42 488.97 513.29 488.97 513.29 478.38 494.61 478.38 494.61 459.7 509.55 459.7 509.55 448.45 494.27 448.45 494.36 429.95 513.29 429.87 513.29 420.7"/><polyline points="520.31 420.7 520.31 488.97 530.27 488.97 530.36 441.95 543.18 488.97 553.59 488.97 554.72 420.7 544.76 420.7 544.76 459.7 533.67 420.7"/><polygon points="552.46 488.97 554.72 488.97 554.72 420.7 551.36 422.95 549.36 461.95 549.36 476.74 552.46 488.97"/><polyline points="399.36 573.95 409.36 505.95 425.67 505.95 436.08 573.95 425.67 573.95 423.36 563.01 410.36 562.78 408.46 573.95"/><polyline points="446.27 573.95 446.27 515.95 434.95 515.95 434.95 505.95 468.23 505.95 468.23 515.95 455.33 515.95 456.23 573.95"/><polyline class="cls-3" points="411.36 552.95 416.36 517.95 418.65 517.95 423.36 552.95"/><path d="M342.36,477.95c-28.02-.88-50.97,21.68-51,48-.03,28.6,27.03,46.61,46,48,1.75,.13,3.19,.07,5,0,7.75-.29,25.74-.94,40-12,4.99-3.87,11.39-10.46,10-13-.68-1.25-2.55-2.1-4-1-.85,.65-2,2-2,2-6,8-16.09,16.86-37,18-2.12,.12-4.46,.14-7,0"/><path d="M354.36,499.95c-1.32-11.28,8.36-22.6,20-22,9.96,.52,18.29,9.6,18,20-.29,10.64-9.51,19.48-20,19-9.42-.43-16.98-8.24-18-17Z"/><path d="M469.36,412.95c-5.66,.17-11.74-4.05-12-10-.27-6.15,5.81-11.27,12-11,6.23,.27,11.79,5.97,11,12-.7,5.29-6.02,8.85-11,9Z"/></svg>